<svg xmlns="http://www.w3.org/2000/svg" viewBox="0 0 1920 1080" preserveAspectRatio="xMidYMid slice" fill="none" stroke="#5A0711" stroke-width="1.4" stroke-linecap="round" stroke-linejoin="round" aria-hidden="true">
  <g opacity="0.9">
    <path d="M-100 120 C 260 60, 540 220, 820 180 S 1380 60, 1720 180 S 2100 320, 2200 260" />
    <path d="M-100 240 C 280 180, 600 340, 900 300 S 1440 180, 1780 300 S 2120 440, 2200 380" opacity="0.7" />
    <path d="M-120 360 C 300 300, 640 460, 960 420 S 1500 300, 1840 420 S 2140 560, 2240 500" opacity="0.55" />
    <path d="M-140 480 C 320 420, 680 580, 1020 540 S 1560 420, 1900 540 S 2160 680, 2260 620" opacity="0.4" />
    <path d="M-160 600 C 340 540, 720 700, 1080 660 S 1620 540, 1960 660 S 2180 800, 2280 740" opacity="0.55" />
    <path d="M-180 720 C 360 660, 760 820, 1140 780 S 1680 660, 2020 780 S 2200 920, 2300 860" opacity="0.7" />
    <path d="M-200 840 C 380 780, 800 940, 1200 900 S 1740 780, 2080 900 S 2220 1040, 2320 980" opacity="0.55" />
    <path d="M-220 960 C 400 900, 840 1060, 1260 1020 S 1800 900, 2140 1020 S 2240 1160, 2340 1100" opacity="0.4" />
  </g>
  <g opacity="0.35" stroke-dasharray="2 6">
    <path d="M-100 60 C 260 0, 540 160, 820 120 S 1380 0, 1720 120 S 2100 260, 2200 200" />
    <path d="M-100 900 C 260 840, 540 1000, 820 960 S 1380 840, 1720 960 S 2100 1100, 2200 1040" />
  </g>
</svg>
